<svg xmlns="http://www.w3.org/2000/svg" width="25" height="8" viewBox="0 0 25 8">
  <g fill="#FFF" fill-opacity=".5" fill-rule="evenodd">
    <path d="M0.71484375,3.8515625 C0.71484375,3.20312176 0.868488047,2.6816426 1.17578125,2.28710938 C1.48307445,1.89257615 1.88541418,1.6953125 2.3828125,1.6953125 C2.87760664,1.6953125 3.2695298,1.86458164 3.55859375,2.203125 L3.55859375,0 L4.28125,0 L4.28125,6 L3.6171875,6 L3.58203125,5.546875 C3.2929673,5.90104344 2.89062758,6.078125 2.375,6.078125 C1.88541422,6.078125 1.48632967,5.87760617 1.17773438,5.4765625 C0.869139082,5.07551883 0.71484375,4.55208656 0.71484375,3.90625 L0.71484375,3.8515625 Z M1.4375,3.93359375 C1.4375,4.41276281 1.53645734,4.78775906 1.734375,5.05859375 C1.93229266,5.32942844 2.20572742,5.46484375 2.5546875,5.46484375 C3.01302313,5.46484375 3.3476552,5.25911664 3.55859375,4.84765625 L3.55859375,2.90625 C3.34244684,2.50781051 3.01041891,2.30859375 2.5625,2.30859375 C2.20833156,2.30859375 1.93229266,2.44531113 1.734375,2.71875 C1.53645734,2.99218887 1.4375,3.39713273 1.4375,3.93359375 Z" transform="translate(1)"/>
    <path d="M2.15625,5.078125 C1.58333047,5.078125 1.1171893,4.88997584 0.7578125,4.51367188 C0.398435703,4.13736791 0.21875,3.63411773 0.21875,3.00390625 L0.21875,2.87109375 C0.21875,2.45182082 0.298827324,2.07747561 0.458984375,1.74804688 C0.619141426,1.41861814 0.84309752,1.16080822 1.13085938,0.974609375 C1.41862123,0.788410527 1.73046707,0.6953125 2.06640625,0.6953125 C2.61588816,0.6953125 3.04296723,0.876300273 3.34765625,1.23828125 C3.65234527,1.60026223 3.8046875,2.11848621 3.8046875,2.79296875 L3.8046875,3.09375 L0.94140625,3.09375 C0.951822969,3.51041875 1.07356654,3.84700393 1.30664062,4.10351562 C1.53971471,4.36002732 1.8359357,4.48828125 2.1953125,4.48828125 C2.45052211,4.48828125 2.66666578,4.43619844 2.84375,4.33203125 C3.02083422,4.22786406 3.17578059,4.08984461 3.30859375,3.91796875 L3.75,4.26171875 C3.39583156,4.8059923 2.86458688,5.078125 2.15625,5.078125 Z M2.06640625,1.2890625 C1.77473812,1.2890625 1.52994891,1.39518123 1.33203125,1.60742188 C1.13411359,1.81966252 1.01171898,2.11718559 0.96484375,2.5 L3.08203125,2.5 L3.08203125,2.4453125 C3.06119781,2.07812316 2.96224047,1.7936208 2.78515625,1.59179688 C2.60807203,1.38997295 2.36849109,1.2890625 2.06640625,1.2890625 Z" transform="translate(6 1)"/>
    <path d="M3.1015625,3.87890625 C3.1015625,3.68359277 3.02799553,3.53190158 2.88085938,3.42382812 C2.73372322,3.31575467 2.47721537,3.22265664 2.11132812,3.14453125 C1.74544088,3.06640586 1.4550792,2.9726568 1.24023438,2.86328125 C1.02538955,2.7539057 0.866536973,2.62369867 0.763671875,2.47265625 C0.660806777,2.32161383 0.609375,2.14192812 0.609375,1.93359375 C0.609375,1.58723785 0.75585791,1.29427203 1.04882812,1.0546875 C1.34179834,0.815102969 1.71614355,0.6953125 2.171875,0.6953125 C2.65104406,0.6953125 3.03971205,0.81900918 3.33789062,1.06640625 C3.6360692,1.31380332 3.78515625,1.63020641 3.78515625,2.015625 L3.05859375,2.015625 C3.05859375,1.81770734 2.97461021,1.64713613 2.80664062,1.50390625 C2.63867104,1.36067637 2.42708461,1.2890625 2.171875,1.2890625 C1.90885285,1.2890625 1.70312574,1.34635359 1.5546875,1.4609375 C1.40624926,1.57552141 1.33203125,1.72525949 1.33203125,1.91015625 C1.33203125,2.08463629 1.40104098,2.21614539 1.5390625,2.3046875 C1.67708402,2.39322961 1.92643049,2.47786418 2.28710938,2.55859375 C2.64778826,2.63932332 2.94010305,2.73567652 3.1640625,2.84765625 C3.38802195,2.95963598 3.55403592,3.09440025 3.66210938,3.25195312 C3.77018283,3.409506 3.82421875,3.60156137 3.82421875,3.828125 C3.82421875,4.20573105 3.67317859,4.5084624 3.37109375,4.73632812 C3.06900891,4.96419385 2.67708574,5.078125 2.1953125,5.078125 C1.85676914,5.078125 1.55729297,5.01822977 1.296875,4.8984375 C1.03645703,4.77864523 0.832683027,4.6113292 0.685546875,4.39648438 C0.538410723,4.18163955 0.46484375,3.94922 0.46484375,3.69921875 L1.1875,3.69921875 C1.2005209,3.94140746 1.29752514,4.13346283 1.47851562,4.27539062 C1.65950611,4.41731842 1.89843602,4.48828125 2.1953125,4.48828125 C2.46875137,4.48828125 2.68815021,4.43294326 2.85351562,4.32226562 C3.01888104,4.21158799 3.1015625,4.06380301 3.1015625,3.87890625 Z" transform="translate(10 1)"/>
    <g transform="translate(14)">
      <polygon points="1.551 6 .828 6 .828 1.773 1.551 1.773"/>
      <path d="M0.76953125,0.65234375 C0.76953125,0.535155664 0.805338184,0.43619832 0.876953125,0.35546875 C0.948568066,0.27473918 1.0546868,0.234375 1.1953125,0.234375 C1.3359382,0.234375 1.44270797,0.27473918 1.515625,0.35546875 C1.58854203,0.43619832 1.625,0.535155664 1.625,0.65234375 C1.625,0.769531836 1.58854203,0.867187109 1.515625,0.9453125 C1.44270797,1.02343789 1.3359382,1.0625 1.1953125,1.0625 C1.0546868,1.0625 0.948568066,1.02343789 0.876953125,0.9453125 C0.805338184,0.867187109 0.76953125,0.769531836 0.76953125,0.65234375 Z"/>
    </g>
    <path d="M0.53515625,2.8515625 C0.53515625,2.19270504 0.687498477,1.66862174 0.9921875,1.27929688 C1.29687652,0.889972012 1.70051832,0.6953125 2.203125,0.6953125 C2.71875258,0.6953125 3.1210923,0.877602344 3.41015625,1.2421875 L3.4453125,0.7734375 L4.10546875,0.7734375 L4.10546875,4.8984375 C4.10546875,5.44531523 3.943361,5.87630051 3.61914062,6.19140625 C3.29492025,6.50651199 2.85937773,6.6640625 2.3125,6.6640625 C2.00781098,6.6640625 1.70963688,6.59895898 1.41796875,6.46875 C1.12630062,6.33854102 0.903646602,6.16015738 0.75,5.93359375 L1.125,5.5 C1.43489738,5.88281441 1.81379984,6.07421875 2.26171875,6.07421875 C2.61328301,6.07421875 2.88736881,5.97526141 3.08398438,5.77734375 C3.28059994,5.57942609 3.37890625,5.30078305 3.37890625,4.94140625 L3.37890625,4.578125 C3.0898423,4.91146 2.695315,5.078125 2.1953125,5.078125 C1.70051836,5.078125 1.30013174,4.87890824 0.994140625,4.48046875 C0.688149512,4.08202926 0.53515625,3.53906594 0.53515625,2.8515625 Z M1.26171875,2.93359375 C1.26171875,3.41015863 1.35937402,3.78450385 1.5546875,4.05664062 C1.75000098,4.3287774 2.02343574,4.46484375 2.375,4.46484375 C2.83073145,4.46484375 3.16536352,4.25781457 3.37890625,3.84375 L3.37890625,1.9140625 C3.15755098,1.51041465 2.82552305,1.30859375 2.3828125,1.30859375 C2.03124824,1.30859375 1.75651141,1.44531113 1.55859375,1.71875 C1.36067609,1.99218887 1.26171875,2.39713273 1.26171875,2.93359375 Z" transform="translate(16 1)"/>
    <path d="M0.87890625,0.7734375 L0.90234375,1.3046875 C1.22526203,0.898435469 1.64713281,0.6953125 2.16796875,0.6953125 C3.06120238,0.6953125 3.51171871,1.19921371 3.51953125,2.20703125 L3.51953125,5 L2.796875,5 L2.796875,2.203125 C2.79427082,1.89843598 2.72461006,1.67317781 2.58789062,1.52734375 C2.45117119,1.38150969 2.2382827,1.30859375 1.94921875,1.30859375 C1.71484258,1.30859375 1.50911547,1.37109313 1.33203125,1.49609375 C1.15494703,1.62109437 1.01692758,1.78515523 0.91796875,1.98828125 L0.91796875,5 L0.1953125,5 L0.1953125,0.7734375 L0.87890625,0.7734375 Z" transform="translate(21 1)"/>
    <path d="M0,5.71875 C0,5.62760371 0.029296582,5.55013053 0.087890625,5.48632812 C0.146484668,5.42252572 0.227864063,5.390625 0.33203125,5.390625 C0.436198437,5.390625 0.518228867,5.42252572 0.578125,5.48632812 C0.638021133,5.55013053 0.66796875,5.62760371 0.66796875,5.71875 C0.66796875,5.80989629 0.638021133,5.88476533 0.578125,5.94335938 C0.518228867,6.00195342 0.436198437,6.03125 0.33203125,6.03125 C0.227864063,6.03125 0.146484668,6.00195342 0.087890625,5.94335938 C0.029296582,5.88476533 0,5.80989629 0,5.71875 Z"/>
  </g>
</svg>
