<?xml version="1.0" encoding="UTF-8"?>
<svg width="1024px" height="520px" viewBox="0 0 1024 520" version="1.1" xmlns="http://www.w3.org/2000/svg" xmlns:xlink="http://www.w3.org/1999/xlink">
    <!-- Generator: Sketch 51.2 (57519) - http://www.bohemiancoding.com/sketch -->
    <title>intro-mast-bg</title>
    <desc>Created with Sketch.</desc>
    <defs>
        <linearGradient x1="100%" y1="0%" x2="40.4945374%" y2="100%" id="linearGradient-1">
            <stop stop-color="#BC6ED5" offset="0%"></stop>
            <stop stop-color="#340061" offset="100%"></stop>
        </linearGradient>
        <linearGradient x1="101.999998%" y1="0%" x2="101.999998%" y2="100.999999%" id="linearGradient-2">
            <stop stop-color="#77379B" offset="0%"></stop>
            <stop stop-color="#5F2387" offset="100%"></stop>
        </linearGradient>
    </defs>
    <g id="Page-2" stroke="none" stroke-width="1" fill="none" fill-rule="evenodd">
        <g id="Desktop-Copy" transform="translate(0.000000, -85.000000)">
            <g id="intro-mast-bg" transform="translate(0.000000, 85.000000)">
                <polygon id="Path-5" fill-opacity="0.05" fill="#000000" points="415.015625 520 634.397798 332.673798 753.417969 309.988281 724.281337 255.92398 1024 0 1024 520"></polygon>
                <rect id="Rectangle-7" fill="url(#linearGradient-1)" fill-rule="nonzero" x="0" y="0" width="1024" height="520"></rect>
                <polygon id="Path-6" fill-opacity="0.05" fill="#FFFFFF" points="415 520 633.984375 330.847656 753.984375 310.605469 723.984375 266.226562 1023.98437 0 737.621094 266.226562 767.925781 316.578125 634 337.324219 443.046875 520"></polygon>
                <polygon id="Path-7" fill="#330061" points="724 265.490234 724 315.787109 754 311.169922"></polygon>
                <polygon id="Path-9" fill="url(#linearGradient-2)" points="768 520 1024 520 1024 0 737 265.054688 768 314.691406"></polygon>
            </g>
        </g>
    </g>
</svg>