<?xml version="1.0" encoding="UTF-8"?>
<svg width="70px" height="25px" viewBox="0 0 70 25" version="1.1" xmlns="http://www.w3.org/2000/svg" xmlns:xlink="http://www.w3.org/1999/xlink">
    <!-- Generator: Sketch 51.2 (57519) - http://www.bohemiancoding.com/sketch -->
    <title>logo</title>
    <desc>Created with Sketch.</desc>
    <defs>
        <linearGradient x1="0%" y1="0%" x2="101.999998%" y2="100.999999%" id="linearGradient-1">
            <stop stop-color="#3023AE" offset="0%"></stop>
            <stop stop-color="#C86DD7" offset="100%"></stop>
        </linearGradient>
    </defs>
    <g id="Page-1" stroke="none" stroke-width="1" fill="none" fill-rule="evenodd">
        <g id="Desktop" transform="translate(-120.000000, -60.000000)" fill="url(#linearGradient-1)">
            <path d="M120,69.3711276 L136.925178,60.960347 L136.925178,63.6400248 L125.361198,69.3556382 L136.925178,75.1332094 L136.925178,77.7819083 L120,69.3711276 Z M140.727888,84.5662949 L140.727888,81.8711276 C142.348723,82.3461403 143.714984,82.5836431 144.826711,82.5836431 C145.792978,82.5836431 146.613774,82.4158422 147.289122,82.0802354 C147.96447,81.7446286 148.491753,81.1792687 148.870987,80.3841388 C149.250221,79.5890088 149.439835,78.2052969 149.439835,76.2329616 L149.439835,62.8810409 L142.052603,62.8810409 L142.052603,60.4801735 L152.338622,60.4801735 L152.338622,75.6908302 C152.338622,78.6235173 151.990563,80.6603619 151.294435,81.801425 C150.598307,82.9424882 149.756732,83.7608401 148.769685,84.2565056 C147.782638,84.752171 146.431962,85 144.717617,85 C143.48121,85 142.151314,84.8554331 140.727888,84.5662949 Z M155.43274,76.8680297 L155.43274,73.8166047 C156.596417,74.5704292 157.82761,75.0996474 159.126356,75.4042751 C160.425103,75.7089028 161.526423,75.8612144 162.43035,75.8612144 C163.895336,75.8612144 164.949903,75.6262931 165.594081,75.1564436 C166.238259,74.6865941 166.560343,74.1005818 166.560343,73.3983891 C166.560343,72.9337028 166.409691,72.5361437 166.108382,72.2057001 C165.807073,71.8752565 165.059006,71.4673713 163.864159,70.9820322 L162.866727,70.5793061 L160.856278,69.7893432 C158.695164,68.9529078 157.334098,68.1784422 156.77304,67.4659232 C156.201591,66.7637305 155.915871,65.9066552 155.915871,64.8946716 C155.915871,63.4696335 156.469129,62.2976089 157.575661,61.3785626 C158.682193,60.4595163 160.477033,60 162.960236,60 C164.820041,60 166.581115,60.2684814 168.24351,60.8054523 L168.24351,63.4231722 C166.331755,62.7416323 164.534317,62.4008674 162.851142,62.4008674 C161.625126,62.4008674 160.666665,62.6151362 159.975732,63.0436803 C159.284799,63.4722244 158.939338,64.0066056 158.939338,64.6468401 C158.939338,65.2664219 159.240642,65.7620799 159.843261,66.133829 C160.435489,66.5055781 161.401742,66.9341157 162.742048,67.4194548 L164.705743,68.1319703 C166.503208,68.7825311 167.76557,69.4898764 168.492868,70.2540273 C169.220166,71.0181781 169.58381,71.9733524 169.58381,73.1195787 C169.58381,74.6169013 169.004577,75.8483017 167.846096,76.8138166 C166.687614,77.7793316 164.835629,78.2620818 162.290087,78.2620818 C160.066633,78.2620818 157.780874,77.7974024 155.43274,76.8680297 Z M190,69.3711276 L173.074822,77.7819083 L173.074822,75.1022305 L184.654387,69.3866171 L173.074822,63.6090458 L173.074822,60.960347 L190,69.3711276 Z" id="logo"></path>
        </g>
    </g>
</svg>