<svg xmlns="http://www.w3.org/2000/svg" width="199" height="31" viewBox="0 0 199 31">
  <defs>
    <linearGradient id="logo_filled-a" x1="0%" x2="102%" y1="0%" y2="101%">
      <stop offset="0%" stop-color="#3023AE"/>
      <stop offset="100%" stop-color="#C86DD7"/>
    </linearGradient>
  </defs>
  <g fill="none" fill-rule="evenodd">
    <path fill="#9013FE" d="M11.6328125 19.703125C11.6328125 18.776037 11.2604204 18.0312528 10.515625 17.46875 9.77082961 16.9062472 8.648445 16.4661474 7.1484375 16.1484375 5.64843 15.8307276 4.48437914 15.4661479 3.65625 15.0546875 2.82812086 14.6432271 2.21354367 14.140628 1.8125 13.546875 1.41145633 12.953122 1.2109375 12.2343792 1.2109375 11.390625 1.2109375 10.057285 1.76822359 8.95573352 2.8828125 8.0859375 3.99740141 7.21614148 5.42447047 6.78125 7.1640625 6.78125 9.04948859 6.78125 10.5624943 7.24739117 11.703125 8.1796875 12.8437557 9.11198383 13.4140625 10.3281175 13.4140625 11.828125L11.5390625 11.828125C11.5390625 10.8385367 11.1250041 10.0156283 10.296875 9.359375 9.46874586 8.70312172 8.42448547 8.375 7.1640625 8.375 5.93488969 8.375 4.94792039 8.64843477 4.203125 9.1953125 3.45832961 9.74219023 3.0859375 10.4531206 3.0859375 11.328125 3.0859375 12.1718792 3.39583023 12.8255185 4.015625 13.2890625 4.63541977 13.7526065 5.7656168 14.1770814 7.40625 14.5625 9.0468832 14.9479186 10.2760376 15.3593728 11.09375 15.796875 11.9114624 16.2343772 12.5182272 16.7604136 12.9140625 17.375 13.3098978 17.9895864 13.5078125 18.7343706 13.5078125 19.609375 13.5078125 21.0364655 12.9322974 22.1770791 11.78125 23.03125 10.6302026 23.8854209 9.12761344 24.3125 7.2734375 24.3125 5.30467766 24.3125 3.70833945 23.8359423 2.484375 22.8828125 1.26041055 21.9296827.6484375 20.7239656.6484375 19.265625L2.5234375 19.265625C2.59635453 20.3593805 3.05728742 21.2109345 3.90625 21.8203125 4.75521258 22.4296905 5.87759719 22.734375 7.2734375 22.734375 8.57552734 22.734375 9.62760016 22.4479195 10.4296875 21.875 11.2317748 21.3020805 11.6328125 20.5781294 11.6328125 19.703125zM20.6171875 2.765625L20.6171875 7.09375 24.1171875 7.09375 24.1171875 8.625 20.6171875 8.625 20.6171875 19.890625C20.6171875 20.8281297 20.7864566 21.5260394 21.125 21.984375 21.4635434 22.4427106 22.0286419 22.671875 22.8203125 22.671875 23.1328141 22.671875 23.6380173 22.6197922 24.3359375 22.515625L24.4140625 24.046875C23.9244767 24.2239592 23.2578167 24.3125 22.4140625 24.3125 21.1328061 24.3125 20.2005238 23.9401079 19.6171875 23.1953125 19.0338512 22.4505171 18.7421875 21.3541739 18.7421875 19.90625L18.7421875 8.625 15.6328125 8.625 15.6328125 7.09375 18.7421875 7.09375 18.7421875 2.765625 20.6171875 2.765625z"/>
    <path fill="#9013FE" d="M8.8046875,2.6875 C8.40885219,2.61458297 7.98698141,2.578125 7.5390625,2.578125 C6.37239,2.578125 5.3854207,2.90364258 4.578125,3.5546875 C3.7708293,4.20573242 3.19531422,5.15103547 2.8515625,6.390625 L2.8515625,18 L0.9921875,18 L0.9921875,1.09375 L2.8203125,1.09375 L2.8515625,3.78125 C3.84115078,1.78124 5.42967656,0.78125 7.6171875,0.78125 C8.13802344,0.78125 8.54947766,0.848957656 8.8515625,0.984375 L8.8046875,2.6875 Z" transform="translate(27 6)"/>
    <polygon fill="#9013FE" points="3.164 15.422 14.148 15.422 14.148 17 .852 17 .852 15.625 11.102 1.703 1.164 1.703 1.164 .094 13.461 .094 13.461 1.484" transform="translate(44 7)"/>
    <g fill="#9013FE" transform="translate(38)">
      <polygon points="2.852 24 .977 24 .977 7.094 2.852 7.094"/>
      <path d="M0.6484375,2.203125 C0.6484375,1.84895656 0.763019687,1.54948039 0.9921875,1.3046875 C1.22135531,1.05989461 1.53385219,0.9375 1.9296875,0.9375 C2.32552281,0.9375 2.64062383,1.05989461 2.875,1.3046875 C3.10937617,1.54948039 3.2265625,1.84895656 3.2265625,2.203125 C3.2265625,2.55729344 3.10937617,2.85416547 2.875,3.09375 C2.64062383,3.33333453 2.32552281,3.453125 1.9296875,3.453125 C1.53385219,3.453125 1.22135531,3.33333453 0.9921875,3.09375 C0.763019687,2.85416547 0.6484375,2.55729344 0.6484375,2.203125 Z"/>
    </g>
    <g fill="#9013FE" transform="translate(61)">
      <polygon points="2.586 24 .711 24 .711 7.094 2.586 7.094"/>
      <path d="M0.3828125,2.203125 C0.3828125,1.84895656 0.497394687,1.54948039 0.7265625,1.3046875 C0.955730313,1.05989461 1.26822719,0.9375 1.6640625,0.9375 C2.05989781,0.9375 2.37499883,1.05989461 2.609375,1.3046875 C2.84375117,1.54948039 2.9609375,1.84895656 2.9609375,2.203125 C2.9609375,2.55729344 2.84375117,2.85416547 2.609375,3.09375 C2.37499883,3.33333453 2.05989781,3.453125 1.6640625,3.453125 C1.26822719,3.453125 0.955730313,3.33333453 0.7265625,3.09375 C0.497394687,2.85416547 0.3828125,2.55729344 0.3828125,2.203125 Z"/>
    </g>
    <path stroke="url(#logo_filled-a)" d="M0.5390625,1.875 C0.5390625,1.51041484 0.656248828,1.20052211 0.890625,0.9453125 C1.12500117,0.690102891 1.45051875,0.5625 1.8671875,0.5625 C2.28385625,0.5625 2.61197797,0.690102891 2.8515625,0.9453125 C3.09114703,1.20052211 3.2109375,1.51041484 3.2109375,1.875 C3.2109375,2.23958516 3.09114703,2.53906133 2.8515625,2.7734375 C2.61197797,3.00781367 2.28385625,3.125 1.8671875,3.125 C1.45051875,3.125 1.12500117,3.00781367 0.890625,2.7734375 C0.656248828,2.53906133 0.5390625,2.23958516 0.5390625,1.875 Z" transform="translate(102 21)"/>
    <path fill="#9013FE" d="M7.9140625,16.734375 C9.21615234,16.734375 10.3072873,16.3671912 11.1875,15.6328125 C12.0677127,14.8984338 12.5442705,13.9479225 12.6171875,12.78125 L14.4140625,12.78125 C14.3619789,13.8125052 14.0390655,14.7525999 13.4453125,15.6015625 C12.8515595,16.4505251 12.0625049,17.1145809 11.078125,17.59375 C10.0937451,18.0729191 9.03906813,18.3125 7.9140625,18.3125 C5.69530141,18.3125 3.93750648,17.5416744 2.640625,16 C1.34374352,14.4583256 0.6953125,12.3854297 0.6953125,9.78125 L0.6953125,9.21875 C0.6953125,7.552075 0.98697625,6.07813141 1.5703125,4.796875 C2.15364875,3.51561859 2.98957789,2.52604516 4.078125,1.828125 C5.16667211,1.13020484 6.44009687,0.78125 7.8984375,0.78125 C9.75261344,0.78125 11.281244,1.33332781 12.484375,2.4375 C13.687506,3.54167219 14.3307287,4.99478266 14.4140625,6.796875 L12.6171875,6.796875 C12.5338537,5.47395172 12.057296,4.40625406 11.1875,3.59375 C10.317704,2.78124594 9.22136078,2.375 7.8984375,2.375 C6.21092906,2.375 4.90104633,2.98436891 3.96875,4.203125 C3.03645367,5.42188109 2.5703125,7.13019734 2.5703125,9.328125 L2.5703125,9.875 C2.5703125,12.0312608 3.03645367,13.7135356 3.96875,14.921875 C4.90104633,16.1302144 6.21613734,16.734375 7.9140625,16.734375 Z" transform="translate(67 6)"/>
    <path fill="#9013FE" d="M2.0078125,9.953125 C2.62239891,8.94270328 3.40884937,8.16146109 4.3671875,7.609375 C5.32552563,7.05728891 6.37239016,6.78125 7.5078125,6.78125 C9.32032156,6.78125 10.6692664,7.29166156 11.5546875,8.3125 C12.4401086,9.33333844 12.8880208,10.8645731 12.8984375,12.90625 L12.8984375,24 L11.0390625,24 L11.0390625,12.890625 C11.0286458,11.3802008 10.7083365,10.255212 10.078125,9.515625 C9.44791352,8.77603797 8.44011109,8.40625 7.0546875,8.40625 C5.89843172,8.40625 4.87500445,8.76822555 3.984375,9.4921875 C3.09374555,10.2161495 2.43489797,11.1927022 2.0078125,12.421875 L2.0078125,24 L0.1484375,24 L0.1484375,0 L2.0078125,0 L2.0078125,9.953125 Z" transform="translate(85)"/>
    <g fill="#9013FE" transform="translate(109)">
      <path d="M0.6015625,15.390625 C0.6015625,12.7656119 1.18749414,10.674487 2.359375,9.1171875 C3.53125586,7.55988805 5.12238578,6.78125 7.1328125,6.78125 C9.41407391,6.78125 11.1536398,7.68228266 12.3515625,9.484375 L12.3515625,0 L14.2109375,0 L14.2109375,24 L12.4609375,24 L12.3828125,21.75 C11.1848898,23.4583419 9.42449078,24.3125 7.1015625,24.3125 C5.15363609,24.3125 3.5833393,23.5286537 2.390625,21.9609375 C1.1979107,20.3932213 0.6015625,18.276055 0.6015625,15.609375 L0.6015625,15.390625 Z"/>
      <path d="M2.4921875,15.71875 C2.4921875,17.8750108 2.92447484,19.5755146 3.7890625,20.8203125 C4.65365016,22.0651104 5.87238797,22.6875 7.4453125,22.6875 C9.74740734,22.6875 11.3828077,21.6718852 12.3515625,19.640625 L12.3515625,11.703125 C11.3828077,9.50519734 9.75782391,8.40625 7.4765625,8.40625 C5.90363797,8.40625 4.67969188,9.02343133 3.8046875,10.2578125 C2.92968312,11.4921937 2.4921875,13.312488 2.4921875,15.71875 Z"/>
    </g>
    <g fill="#9013FE" transform="translate(127 6)">
      <path d="M7.6796875,18.3125 C6.24218031,18.3125 4.94271414,17.9583369 3.78125,17.25 C2.61978586,16.5416631 1.71614906,15.5546938 1.0703125,14.2890625 C0.424475938,13.0234312 0.1015625,11.6041745 0.1015625,10.03125 L0.1015625,9.359375 C0.1015625,7.73436688 0.416663516,6.27083984 1.046875,4.96875 C1.67708648,3.66666016 2.55468187,2.64323289 3.6796875,1.8984375 C4.80469313,1.15364211 6.02343094,0.78125 7.3359375,0.78125 C9.38803109,0.78125 11.015619,1.48176383 12.21875,2.8828125 C13.421881,4.28386117 14.0234375,6.19790453 14.0234375,8.625 L14.0234375,9.671875 L1.9609375,9.671875 L1.9609375,10.03125 C1.9609375,11.9479262 2.51041117,13.5442645 3.609375,14.8203125 C4.70833883,16.0963605 6.0911375,16.734375 7.7578125,16.734375 C8.7578175,16.734375 9.64062117,16.5520852 10.40625,16.1875 C11.1718788,15.8229148 11.8671844,15.2395873 12.4921875,14.4375 L13.6640625,15.328125 C12.2890556,17.3177183 10.2942839,18.3125 7.6796875,18.3125 Z"/>
      <path d="M7.3359375,2.375 C5.92968047,2.375 4.74479648,2.89061984 3.78125,3.921875 C2.81770352,4.95313016 2.23177187,6.33853297 2.0234375,8.078125 L12.1640625,8.078125 L12.1640625,7.875 C12.1119789,6.24999188 11.6484419,4.92708844 10.7734375,3.90625 C9.89843312,2.88541156 8.75261125,2.375 7.3359375,2.375 Z"/>
    </g>
    <path fill="#9013FE" d="M11.7890625,13.703125 C11.7890625,12.776037 11.4166704,12.0312528 10.671875,11.46875 C9.92707961,10.9062472 8.804695,10.4661474 7.3046875,10.1484375 C5.80468,9.83072758 4.64062914,9.46614789 3.8125,9.0546875 C2.98437086,8.64322711 2.36979367,8.14062797 1.96875,7.546875 C1.56770633,6.95312203 1.3671875,6.23437922 1.3671875,5.390625 C1.3671875,4.057285 1.92447359,2.95573352 3.0390625,2.0859375 C4.15365141,1.21614148 5.58072047,0.78125 7.3203125,0.78125 C9.20573859,0.78125 10.7187443,1.24739117 11.859375,2.1796875 C13.0000057,3.11198383 13.5703125,4.3281175 13.5703125,5.828125 L11.6953125,5.828125 C11.6953125,4.83853672 11.2812541,4.01562828 10.453125,3.359375 C9.62499586,2.70312172 8.58073547,2.375 7.3203125,2.375 C6.09113969,2.375 5.10417039,2.64843477 4.359375,3.1953125 C3.61457961,3.74219023 3.2421875,4.45312062 3.2421875,5.328125 C3.2421875,6.17187922 3.55208023,6.82551852 4.171875,7.2890625 C4.79166977,7.75260648 5.9218668,8.17708141 7.5625,8.5625 C9.2031332,8.94791859 10.4322876,9.35937281 11.25,9.796875 C12.0677124,10.2343772 12.6744772,10.7604136 13.0703125,11.375 C13.4661478,11.9895864 13.6640625,12.7343706 13.6640625,13.609375 C13.6640625,15.0364655 13.0885474,16.1770791 11.9375,17.03125 C10.7864526,17.8854209 9.28386344,18.3125 7.4296875,18.3125 C5.46092766,18.3125 3.86458945,17.8359423 2.640625,16.8828125 C1.41666055,15.9296827 0.8046875,14.7239656 0.8046875,13.265625 L2.6796875,13.265625 C2.75260453,14.3593805 3.21353742,15.2109345 4.0625,15.8203125 C4.91146258,16.4296905 6.03384719,16.734375 7.4296875,16.734375 C8.73177734,16.734375 9.78385016,16.4479195 10.5859375,15.875 C11.3880248,15.3020805 11.7890625,14.5781294 11.7890625,13.703125 Z" transform="translate(143 6)"/>
    <g fill="#9013FE" transform="translate(160)">
      <polygon points="2.961 24 1.086 24 1.086 7.094 2.961 7.094"/>
      <path d="M0.7578125,2.203125 C0.7578125,1.84895656 0.872394687,1.54948039 1.1015625,1.3046875 C1.33073031,1.05989461 1.64322719,0.9375 2.0390625,0.9375 C2.43489781,0.9375 2.74999883,1.05989461 2.984375,1.3046875 C3.21875117,1.54948039 3.3359375,1.84895656 3.3359375,2.203125 C3.3359375,2.55729344 3.21875117,2.85416547 2.984375,3.09375 C2.74999883,3.33333453 2.43489781,3.453125 2.0390625,3.453125 C1.64322719,3.453125 1.33073031,3.33333453 1.1015625,3.09375 C0.872394687,2.85416547 0.7578125,2.55729344 0.7578125,2.203125 Z"/>
    </g>
    <path fill="#9013FE" d="M2.5703125,1.09375 L2.6328125,3.984375 C3.26823234,2.94270313 4.05989109,2.14844023 5.0078125,1.6015625 C5.95573391,1.05468477 7.00259844,0.78125 8.1484375,0.78125 C9.96094656,0.78125 11.3098914,1.29166156 12.1953125,2.3125 C13.0807336,3.33333844 13.5286458,4.86457312 13.5390625,6.90625 L13.5390625,18 L11.6796875,18 L11.6796875,6.890625 C11.6692708,5.38020078 11.3489615,4.25521203 10.71875,3.515625 C10.0885385,2.77603797 9.08073609,2.40625 7.6953125,2.40625 C6.53905672,2.40625 5.51562945,2.76822555 4.625,3.4921875 C3.73437055,4.21614945 3.07552297,5.19270219 2.6484375,6.421875 L2.6484375,18 L0.7890625,18 L0.7890625,1.09375 L2.5703125,1.09375 Z" transform="translate(185 6)"/>
    <g fill="#9013FE" transform="translate(167 6)">
      <path d="M0.2890625,9.390625 C0.2890625,6.74477844 0.874994141,4.64844523 2.046875,3.1015625 C3.21875586,1.55467977 4.80988578,0.78125 6.8203125,0.78125 C9.12240734,0.78125 10.8723898,1.6979075 12.0703125,3.53125 L12.1640625,1.09375 L13.9140625,1.09375 L13.9140625,17.65625 C13.9140625,19.8333442 13.3046936,21.5572853 12.0859375,22.828125 C10.8671814,24.0989647 9.21615625,24.734375 7.1328125,24.734375 C5.95572328,24.734375 4.83333867,24.4713568 3.765625,23.9453125 C2.69791133,23.4192682 1.85677391,22.7187544 1.2421875,21.84375 L2.2890625,20.71875 C3.61198578,22.3437581 5.18488672,23.15625 7.0078125,23.15625 C8.57032031,23.15625 9.78905812,22.6953171 10.6640625,21.7734375 C11.5390669,20.8515579 11.9921873,19.5729248 12.0234375,17.9375 L12.0234375,15.8125 C10.8255148,17.479175 9.08074062,18.3125 6.7890625,18.3125 C4.83071938,18.3125 3.25781844,17.5312578 2.0703125,15.96875 C0.882806563,14.4062422 0.2890625,12.2968883 0.2890625,9.640625 L0.2890625,9.390625 Z"/>
      <path d="M2.1796875,9.71875 C2.1796875,11.8750108 2.61197484,13.5755146 3.4765625,14.8203125 C4.34115016,16.0651104 5.55988797,16.6875 7.1328125,16.6875 C9.43490734,16.6875 11.0650994,15.6562603 12.0234375,13.59375 L12.0234375,5.734375 C11.5859353,4.65103625 10.9557333,3.82552367 10.1328125,3.2578125 C9.30989172,2.69010133 8.32031828,2.40625 7.1640625,2.40625 C5.59113797,2.40625 4.36719188,3.02343133 3.4921875,4.2578125 C2.61718312,5.49219367 2.1796875,7.31248797 2.1796875,9.71875 Z"/>
    </g>
  </g>
</svg>
