<svg xmlns="http://www.w3.org/2000/svg" width="200" height="33" viewBox="0 0 200 33">
  <defs>
    <linearGradient id="sd_logo-a" x1="0%" x2="102%" y1="0%" y2="101%">
      <stop offset="0%" stop-color="#3023AE"/>
      <stop offset="100%" stop-color="#C86DD7"/>
    </linearGradient>
  </defs>
  <path fill="none" stroke="url(#sd_logo-a)" d="M132.632812,72.703125 C132.632812,71.776037 132.26042,71.0312528 131.515625,70.46875 C130.77083,69.9062472 129.648445,69.4661474 128.148438,69.1484375 C126.64843,68.8307276 125.484379,68.4661479 124.65625,68.0546875 C123.828121,67.6432271 123.213544,67.140628 122.8125,66.546875 C122.411456,65.953122 122.210938,65.2343792 122.210938,64.390625 C122.210938,63.057285 122.768224,61.9557335 123.882812,61.0859375 C124.997401,60.2161415 126.42447,59.78125 128.164062,59.78125 C130.049489,59.78125 131.562494,60.2473912 132.703125,61.1796875 C133.843756,62.1119838 134.414062,63.3281175 134.414062,64.828125 L132.539062,64.828125 C132.539062,63.8385367 132.125004,63.0156283 131.296875,62.359375 C130.468746,61.7031217 129.424485,61.375 128.164062,61.375 C126.93489,61.375 125.94792,61.6484348 125.203125,62.1953125 C124.45833,62.7421902 124.085938,63.4531206 124.085938,64.328125 C124.085938,65.1718792 124.39583,65.8255185 125.015625,66.2890625 C125.63542,66.7526065 126.765617,67.1770814 128.40625,67.5625 C130.046883,67.9479186 131.276038,68.3593728 132.09375,68.796875 C132.911462,69.2343772 133.518227,69.7604136 133.914062,70.375 C134.309898,70.9895864 134.507812,71.7343706 134.507812,72.609375 C134.507812,74.0364655 133.932297,75.1770791 132.78125,76.03125 C131.630203,76.8854209 130.127613,77.3125 128.273438,77.3125 C126.304678,77.3125 124.708339,76.8359423 123.484375,75.8828125 C122.260411,74.9296827 121.648438,73.7239656 121.648438,72.265625 L123.523438,72.265625 C123.596355,73.3593805 124.057287,74.2109345 124.90625,74.8203125 C125.755213,75.4296905 126.877597,75.734375 128.273438,75.734375 C129.575527,75.734375 130.6276,75.4479195 131.429688,74.875 C132.231775,74.3020805 132.632812,73.5781294 132.632812,72.703125 Z M141.617188,55.765625 L141.617188,60.09375 L145.117188,60.09375 L145.117188,61.625 L141.617188,61.625 L141.617188,72.890625 C141.617188,73.8281297 141.786457,74.5260394 142.125,74.984375 C142.463543,75.4427106 143.028642,75.671875 143.820312,75.671875 C144.132814,75.671875 144.638017,75.6197922 145.335938,75.515625 L145.414062,77.046875 C144.924477,77.2239592 144.257817,77.3125 143.414062,77.3125 C142.132806,77.3125 141.200524,76.9401079 140.617188,76.1953125 C140.033851,75.4505171 139.742188,74.3541739 139.742188,72.90625 L139.742188,61.625 L136.632812,61.625 L136.632812,60.09375 L139.742188,60.09375 L139.742188,55.765625 L141.617188,55.765625 Z M156.804688,61.6875 C156.408852,61.614583 155.986981,61.578125 155.539062,61.578125 C154.37239,61.578125 153.385421,61.9036426 152.578125,62.5546875 C151.770829,63.2057324 151.195314,64.1510355 150.851562,65.390625 L150.851562,77 L148.992188,77 L148.992188,60.09375 L150.820312,60.09375 L150.851562,62.78125 C151.841151,60.78124 153.429677,59.78125 155.617188,59.78125 C156.138023,59.78125 156.549478,59.8489577 156.851562,59.984375 L156.804688,61.6875 Z M161.851562,77 L159.976562,77 L159.976562,60.09375 L161.851562,60.09375 L161.851562,77 Z M159.648438,55.203125 C159.648438,54.8489566 159.76302,54.5494804 159.992188,54.3046875 C160.221355,54.0598946 160.533852,53.9375 160.929688,53.9375 C161.325523,53.9375 161.640624,54.0598946 161.875,54.3046875 C162.109376,54.5494804 162.226562,54.8489566 162.226562,55.203125 C162.226562,55.5572934 162.109376,55.8541655 161.875,56.09375 C161.640624,56.3333345 161.325523,56.453125 160.929688,56.453125 C160.533852,56.453125 160.221355,56.3333345 159.992188,56.09375 C159.76302,55.8541655 159.648438,55.5572934 159.648438,55.203125 Z M168.164062,75.421875 L179.148438,75.421875 L179.148438,77 L165.851562,77 L165.851562,75.625 L176.101562,61.703125 L166.164062,61.703125 L166.164062,60.09375 L178.460938,60.09375 L178.460938,61.484375 L168.164062,75.421875 Z M184.585938,77 L182.710938,77 L182.710938,60.09375 L184.585938,60.09375 L184.585938,77 Z M182.382812,55.203125 C182.382812,54.8489566 182.497395,54.5494804 182.726562,54.3046875 C182.95573,54.0598946 183.268227,53.9375 183.664062,53.9375 C184.059898,53.9375 184.374999,54.0598946 184.609375,54.3046875 C184.843751,54.5494804 184.960938,54.8489566 184.960938,55.203125 C184.960938,55.5572934 184.843751,55.8541655 184.609375,56.09375 C184.374999,56.3333345 184.059898,56.453125 183.664062,56.453125 C183.268227,56.453125 182.95573,56.3333345 182.726562,56.09375 C182.497395,55.8541655 182.382812,55.5572934 182.382812,55.203125 Z M195.914062,75.734375 C197.216152,75.734375 198.307287,75.3671912 199.1875,74.6328125 C200.067713,73.8984338 200.54427,72.9479225 200.617188,71.78125 L202.414062,71.78125 C202.361979,72.8125052 202.039065,73.7525999 201.445312,74.6015625 C200.85156,75.4505251 200.062505,76.1145809 199.078125,76.59375 C198.093745,77.0729191 197.039068,77.3125 195.914062,77.3125 C193.695301,77.3125 191.937506,76.5416744 190.640625,75 C189.343744,73.4583256 188.695312,71.3854297 188.695312,68.78125 L188.695312,68.21875 C188.695312,66.552075 188.986976,65.0781314 189.570312,63.796875 C190.153649,62.5156186 190.989578,61.5260452 192.078125,60.828125 C193.166672,60.1302048 194.440097,59.78125 195.898438,59.78125 C197.752613,59.78125 199.281244,60.3333278 200.484375,61.4375 C201.687506,62.5416722 202.330729,63.9947827 202.414062,65.796875 L200.617188,65.796875 C200.533854,64.4739517 200.057296,63.4062541 199.1875,62.59375 C198.317704,61.7812459 197.221361,61.375 195.898438,61.375 C194.210929,61.375 192.901046,61.9843689 191.96875,63.203125 C191.036454,64.4218811 190.570312,66.1301973 190.570312,68.328125 L190.570312,68.875 C190.570312,71.0312608 191.036454,72.7135356 191.96875,73.921875 C192.901046,75.1302144 194.216137,75.734375 195.914062,75.734375 Z M208.007812,62.953125 C208.622399,61.9427033 209.408849,61.1614611 210.367188,60.609375 C211.325526,60.0572889 212.37239,59.78125 213.507812,59.78125 C215.320322,59.78125 216.669266,60.2916616 217.554688,61.3125 C218.440109,62.3333384 218.888021,63.8645731 218.898438,65.90625 L218.898438,77 L217.039062,77 L217.039062,65.890625 C217.028646,64.3802008 216.708336,63.255212 216.078125,62.515625 C215.447914,61.776038 214.440111,61.40625 213.054688,61.40625 C211.898432,61.40625 210.875004,61.7682255 209.984375,62.4921875 C209.093746,63.2161495 208.434898,64.1927022 208.007812,65.421875 L208.007812,77 L206.148438,77 L206.148438,53 L208.007812,53 L208.007812,62.953125 Z M223.539062,75.875 C223.539062,75.5104148 223.656249,75.2005221 223.890625,74.9453125 C224.125001,74.6901029 224.450519,74.5625 224.867188,74.5625 C225.283856,74.5625 225.611978,74.6901029 225.851562,74.9453125 C226.091147,75.2005221 226.210938,75.5104148 226.210938,75.875 C226.210938,76.2395852 226.091147,76.5390613 225.851562,76.7734375 C225.611978,77.0078137 225.283856,77.125 224.867188,77.125 C224.450519,77.125 224.125001,77.0078137 223.890625,76.7734375 C223.656249,76.5390613 223.539062,76.2395852 223.539062,75.875 Z M230.601562,68.390625 C230.601562,65.7656119 231.187494,63.674487 232.359375,62.1171875 C233.531256,60.559888 235.122386,59.78125 237.132812,59.78125 C239.414074,59.78125 241.15364,60.6822827 242.351562,62.484375 L242.351562,53 L244.210938,53 L244.210938,77 L242.460938,77 L242.382812,74.75 C241.18489,76.4583419 239.424491,77.3125 237.101562,77.3125 C235.153636,77.3125 233.583339,76.5286537 232.390625,74.9609375 C231.197911,73.3932213 230.601562,71.276055 230.601562,68.609375 L230.601562,68.390625 Z M232.492188,68.71875 C232.492188,70.8750108 232.924475,72.5755146 233.789062,73.8203125 C234.65365,75.0651104 235.872388,75.6875 237.445312,75.6875 C239.747407,75.6875 241.382808,74.6718852 242.351562,72.640625 L242.351562,64.703125 C241.382808,62.5051973 239.757824,61.40625 237.476562,61.40625 C235.903638,61.40625 234.679692,62.0234313 233.804688,63.2578125 C232.929683,64.4921937 232.492188,66.312488 232.492188,68.71875 Z M255.679688,77.3125 C254.24218,77.3125 252.942714,76.9583369 251.78125,76.25 C250.619786,75.5416631 249.716149,74.5546938 249.070312,73.2890625 C248.424476,72.0234312 248.101562,70.6041745 248.101562,69.03125 L248.101562,68.359375 C248.101562,66.7343669 248.416664,65.2708398 249.046875,63.96875 C249.677086,62.6666602 250.554682,61.6432329 251.679688,60.8984375 C252.804693,60.1536421 254.023431,59.78125 255.335938,59.78125 C257.388031,59.78125 259.015619,60.4817638 260.21875,61.8828125 C261.421881,63.2838612 262.023438,65.1979045 262.023438,67.625 L262.023438,68.671875 L249.960938,68.671875 L249.960938,69.03125 C249.960938,70.9479262 250.510411,72.5442645 251.609375,73.8203125 C252.708339,75.0963605 254.091138,75.734375 255.757812,75.734375 C256.757817,75.734375 257.640621,75.5520852 258.40625,75.1875 C259.171879,74.8229148 259.867184,74.2395873 260.492188,73.4375 L261.664062,74.328125 C260.289056,76.3177183 258.294284,77.3125 255.679688,77.3125 Z M255.335938,61.375 C253.92968,61.375 252.744796,61.8906198 251.78125,62.921875 C250.817704,63.9531302 250.231772,65.338533 250.023438,67.078125 L260.164062,67.078125 L260.164062,66.875 C260.111979,65.2499919 259.648442,63.9270884 258.773438,62.90625 C257.898433,61.8854116 256.752611,61.375 255.335938,61.375 Z M275.789062,72.703125 C275.789062,71.776037 275.41667,71.0312528 274.671875,70.46875 C273.92708,69.9062472 272.804695,69.4661474 271.304688,69.1484375 C269.80468,68.8307276 268.640629,68.4661479 267.8125,68.0546875 C266.984371,67.6432271 266.369794,67.140628 265.96875,66.546875 C265.567706,65.953122 265.367188,65.2343792 265.367188,64.390625 C265.367188,63.057285 265.924474,61.9557335 267.039062,61.0859375 C268.153651,60.2161415 269.58072,59.78125 271.320312,59.78125 C273.205739,59.78125 274.718744,60.2473912 275.859375,61.1796875 C277.000006,62.1119838 277.570312,63.3281175 277.570312,64.828125 L275.695312,64.828125 C275.695312,63.8385367 275.281254,63.0156283 274.453125,62.359375 C273.624996,61.7031217 272.580735,61.375 271.320312,61.375 C270.09114,61.375 269.10417,61.6484348 268.359375,62.1953125 C267.61458,62.7421902 267.242188,63.4531206 267.242188,64.328125 C267.242188,65.1718792 267.55208,65.8255185 268.171875,66.2890625 C268.79167,66.7526065 269.921867,67.1770814 271.5625,67.5625 C273.203133,67.9479186 274.432288,68.3593728 275.25,68.796875 C276.067712,69.2343772 276.674477,69.7604136 277.070312,70.375 C277.466148,70.9895864 277.664062,71.7343706 277.664062,72.609375 C277.664062,74.0364655 277.088547,75.1770791 275.9375,76.03125 C274.786453,76.8854209 273.283863,77.3125 271.429688,77.3125 C269.460928,77.3125 267.864589,76.8359423 266.640625,75.8828125 C265.416661,74.9296827 264.804688,73.7239656 264.804688,72.265625 L266.679688,72.265625 C266.752605,73.3593805 267.213537,74.2109345 268.0625,74.8203125 C268.911463,75.4296905 270.033847,75.734375 271.429688,75.734375 C272.731777,75.734375 273.78385,75.4479195 274.585938,74.875 C275.388025,74.3020805 275.789062,73.5781294 275.789062,72.703125 Z M283.960938,77 L282.085938,77 L282.085938,60.09375 L283.960938,60.09375 L283.960938,77 Z M281.757812,55.203125 C281.757812,54.8489566 281.872395,54.5494804 282.101562,54.3046875 C282.33073,54.0598946 282.643227,53.9375 283.039062,53.9375 C283.434898,53.9375 283.749999,54.0598946 283.984375,54.3046875 C284.218751,54.5494804 284.335938,54.8489566 284.335938,55.203125 C284.335938,55.5572934 284.218751,55.8541655 283.984375,56.09375 C283.749999,56.3333345 283.434898,56.453125 283.039062,56.453125 C282.643227,56.453125 282.33073,56.3333345 282.101562,56.09375 C281.872395,55.8541655 281.757812,55.5572934 281.757812,55.203125 Z M288.289062,68.390625 C288.289062,65.7447784 288.874994,63.6484452 290.046875,62.1015625 C291.218756,60.5546798 292.809886,59.78125 294.820312,59.78125 C297.122407,59.78125 298.87239,60.6979075 300.070312,62.53125 L300.164062,60.09375 L301.914062,60.09375 L301.914062,76.65625 C301.914062,78.8333442 301.304694,80.5572853 300.085938,81.828125 C298.867181,83.0989647 297.216156,83.734375 295.132812,83.734375 C293.955723,83.734375 292.833339,83.4713568 291.765625,82.9453125 C290.697911,82.4192682 289.856774,81.7187544 289.242188,80.84375 L290.289062,79.71875 C291.611986,81.3437581 293.184887,82.15625 295.007812,82.15625 C296.57032,82.15625 297.789058,81.6953171 298.664062,80.7734375 C299.539067,79.8515579 299.992187,78.5729248 300.023438,76.9375 L300.023438,74.8125 C298.825515,76.479175 297.080741,77.3125 294.789062,77.3125 C292.830719,77.3125 291.257818,76.5312578 290.070312,74.96875 C288.882807,73.4062422 288.289062,71.2968883 288.289062,68.640625 L288.289062,68.390625 Z M290.179688,68.71875 C290.179688,70.8750108 290.611975,72.5755146 291.476562,73.8203125 C292.34115,75.0651104 293.559888,75.6875 295.132812,75.6875 C297.434907,75.6875 299.065099,74.6562603 300.023438,72.59375 L300.023438,64.734375 C299.585935,63.6510362 298.955733,62.8255237 298.132812,62.2578125 C297.309892,61.6901013 296.320318,61.40625 295.164062,61.40625 C293.591138,61.40625 292.367192,62.0234313 291.492188,63.2578125 C290.617183,64.4921937 290.179688,66.312488 290.179688,68.71875 Z M308.570312,60.09375 L308.632812,62.984375 C309.268232,61.9427031 310.059891,61.1484402 311.007812,60.6015625 C311.955734,60.0546848 313.002598,59.78125 314.148438,59.78125 C315.960947,59.78125 317.309891,60.2916616 318.195312,61.3125 C319.080734,62.3333384 319.528646,63.8645731 319.539062,65.90625 L319.539062,77 L317.679688,77 L317.679688,65.890625 C317.669271,64.3802008 317.348961,63.255212 316.71875,62.515625 C316.088539,61.776038 315.080736,61.40625 313.695312,61.40625 C312.539057,61.40625 311.515629,61.7682255 310.625,62.4921875 C309.734371,63.2161495 309.075523,64.1927022 308.648438,65.421875 L308.648438,77 L306.789062,77 L306.789062,60.09375 L308.570312,60.09375 Z" transform="translate(-121 -52)"/>
</svg>
