<svg xmlns="http://www.w3.org/2000/svg" width="80" height="24" viewBox="0 0 80 24">
  <path fill="#9013FE" fill-rule="evenodd" d="M69.6056716,19.2868251 C69.601893,19.0014106 69.6000037,18.6993696 69.6000037,18.3807018 C69.6000037,15.8818034 69.855569,13.2774712 70.3667073,10.567627 C70.8778456,7.8577827 71.6323717,5.58203445 72.6303084,3.74031394 C73.6282451,1.89859344 74.8249398,0.977746999 76.2204284,0.977746999 C76.9668526,0.977746999 77.5712849,1.29821779 78.0337433,1.93916898 C78.4962018,2.58012016 78.7274275,3.41172157 78.7274275,4.43399815 C78.7274275,6.072886 78.2487496,7.77259815 77.2913795,9.5331856 C76.3340094,11.293773 74.7762779,13.3504653 72.6181385,15.7033241 C72.5694587,16.5471079 72.5451191,17.4152187 72.5451191,18.3076824 C73.0805973,16.9284203 73.6769164,15.8047443 74.3340942,14.9366205 C74.991272,14.0684967 75.6403267,13.4478381 76.2812779,13.074626 C76.9222291,12.701414 77.510435,12.5148107 78.0459132,12.5148107 C78.5651648,12.5148107 78.9586542,12.6486783 79.2263934,12.9164174 C79.4941325,13.1841565 79.628,13.5776459 79.628,14.0968975 C79.628,14.5187894 79.538755,15.3138815 79.3602622,16.4821976 C79.1979961,17.472021 79.0681852,18.4090938 78.9708255,19.2934441 C78.8734658,20.1777945 78.8247867,21.1635464 78.8247867,22.2507295 C78.8247867,22.8673407 78.6990323,23.3095093 78.4475199,23.5772484 C78.1960074,23.8449875 77.7862915,23.978855 77.2183601,23.978855 C76.6828819,23.978855 76.293449,23.8409309 76.0500499,23.5650785 C75.8066507,23.2892261 75.6849529,22.8754537 75.6849529,22.3237488 C75.6849529,21.6746844 75.7985375,20.603744 76.0257101,19.1108957 C76.2204294,17.8127667 76.3177876,16.9852219 76.3177876,16.6282364 C76.3177876,16.3686106 76.2285426,16.2387996 76.0500499,16.2387996 C75.8391039,16.2387996 75.5389161,16.5105913 75.1494774,17.0541828 C74.7600387,17.5977743 74.3706058,18.3157912 73.9811671,19.2082548 C73.5917284,20.1007185 73.2753142,21.0418479 73.0319151,22.0316713 C72.8534223,22.7943221 72.6465361,23.3095093 72.4112502,23.5772484 C72.1759644,23.8449875 71.8068145,23.978855 71.3037895,23.978855 C70.8007645,23.978855 70.4316146,23.7963084 70.1963287,23.4312096 C70.0113481,23.1441707 69.8740101,22.7342731 69.7843124,22.2015086 C69.2997349,22.6005137 68.7717873,22.9373936 68.2004654,23.2121514 C67.1376223,23.7232897 66.1113044,23.978855 65.1214811,23.978855 C63.5312731,23.978855 62.2940124,23.5285733 61.409662,22.6279963 C61.2565468,22.4720716 61.1166868,22.3075134 60.990082,22.1343214 C59.7535907,23.3640154 58.5831658,23.978855 57.4787849,23.978855 C56.4240551,23.978855 55.6573591,23.6056485 55.1786741,22.8592244 C55.0589491,22.6725346 54.9541967,22.4706196 54.8644167,22.253479 C54.3581335,22.6884617 53.7975997,23.0607542 53.1828107,23.3703601 C52.0550612,23.9382915 50.7853478,24.222253 49.3736325,24.222253 C48.2702229,24.222253 47.3128671,24.0559327 46.5015365,23.7232872 C45.6902059,23.3906416 45.0695472,22.9363033 44.639542,22.3602585 C44.6094123,22.3198961 44.5803382,22.2791951 44.5523196,22.2381556 C43.3548002,23.3986263 42.2196276,23.978855 41.1467812,23.978855 C40.0920514,23.978855 39.3253554,23.6056485 38.8466704,22.8592244 C38.3896781,22.1466264 38.1508304,21.2122033 38.1301209,20.0559295 C37.5823903,20.3183673 37.0058615,20.4495845 36.4005208,20.4495845 C35.5405103,20.4495845 34.887399,20.2305285 34.4411671,19.79241 C33.9949353,19.3542914 33.7718227,18.762029 33.7718227,18.0156048 C33.7718227,17.7722056 33.7961623,17.5288101 33.8448421,17.2854109 C33.8772953,16.9608786 33.8935217,16.7418227 33.8935217,16.6282364 C33.8935217,16.3686106 33.8042767,16.2387996 33.6257839,16.2387996 C33.3823847,16.2387996 33.061914,16.5105913 32.664362,17.0541828 C32.26681,17.5977743 31.8733205,18.3157912 31.4838818,19.2082548 C31.0944431,20.1007185 30.7780289,21.0418479 30.5346297,22.0316713 C30.356137,22.7943221 30.1492508,23.3095093 29.9139649,23.5772484 C29.678679,23.8449875 29.3095291,23.978855 28.8065042,23.978855 C28.1898929,23.978855 27.7558375,23.6543277 27.504325,23.0052632 C27.4333382,22.8220715 27.3723693,22.6078587 27.321418,22.362624 C26.9925515,22.6534703 26.6519145,22.9163623 26.2995051,23.1513019 C25.4719478,23.7030068 24.5227053,23.978855 23.4517488,23.978855 C20.1415199,23.978855 18.4864303,21.6503711 18.4864303,16.9933333 C18.4864303,16.2793624 18.5107698,15.557289 18.5594497,14.8270914 L17.6101976,14.8270914 C17.1233992,14.8270914 16.7948153,14.7378464 16.6244358,14.5593536 C16.4540564,14.3808609 16.368868,14.0968995 16.368868,13.7074608 C16.368868,12.7987705 16.7339613,12.3444321 17.4641588,12.3444321 L18.8515272,12.3444321 C19.1273796,10.5595048 19.5492652,8.92875469 20.1171967,7.45213296 C20.6851281,5.97551124 21.3706922,4.79909949 22.1739095,3.92286242 C22.9771268,3.04662535 23.841181,2.60851339 24.7660979,2.60851339 C25.4476156,2.60851339 25.9830858,2.90870121 26.3725245,3.50908587 C26.7619632,4.10947053 26.9566796,4.86399669 26.9566796,5.77268698 C26.9566796,8.2878119 25.9019656,10.4783717 23.792506,12.3444321 L26.5185633,12.3444321 C26.778189,12.3444321 26.9647923,12.4012244 27.0783786,12.5148107 C27.1919649,12.628397 27.2487572,12.8393398 27.2487572,13.1476454 C27.2487572,14.2672817 26.3319673,14.8270914 24.4983601,14.8270914 L21.5289049,14.8270914 C21.4964517,15.638422 21.4802253,16.2712504 21.4802253,16.7255956 C21.4802253,18.4131633 21.6789983,19.5976882 22.0765503,20.2792059 C22.4741023,20.9607236 23.1028741,21.3014774 23.9628846,21.3014774 C24.6606289,21.3014774 25.2772309,21.0905346 25.8127091,20.6686427 C26.2012553,20.3625154 26.6410566,19.9453293 27.1321205,19.4170771 C27.1737589,17.4804083 27.4722599,15.6340116 28.0276307,13.8778393 C28.1736702,13.4072676 28.4130091,13.0624572 28.7456547,12.843398 C29.0783002,12.6243387 29.5448083,12.5148107 30.145193,12.5148107 C30.4697252,12.5148107 30.6968944,12.5553766 30.8267073,12.6365097 C30.9565202,12.7176428 31.0214257,12.8717933 31.0214257,13.0989658 C31.0214257,13.3585916 30.8997279,13.9427409 30.6563287,14.8514312 C30.4940626,15.5004957 30.3642516,16.0684186 30.266892,16.555217 C30.1695323,17.0420154 30.0884004,17.642391 30.023494,18.356362 C30.5589722,16.9608733 31.1593479,15.8250275 31.824639,14.9487904 C32.4899301,14.0725533 33.1430414,13.4478381 33.7839926,13.074626 C34.4249438,12.701414 35.0131497,12.5148107 35.5486279,12.5148107 C36.6033577,12.5148107 37.1307147,13.0421677 37.1307147,14.0968975 C37.1307147,14.3078435 37.057696,14.8189741 36.9116565,15.6303047 C36.7818436,16.2793692 36.7169381,16.6850284 36.7169381,16.8472946 C36.7169381,17.415226 36.9197677,17.6991874 37.3254331,17.6991874 C37.6223043,17.6991874 37.9745937,17.5467792 38.3823064,17.2419598 C38.3908403,17.1879582 38.3995895,17.1334792 38.408554,17.0785226 C38.5951601,15.9345465 38.834499,14.8676627 39.126578,13.8778393 C39.2726175,13.3585877 39.467334,13.0016076 39.7107331,12.8068883 C39.9541323,12.6121689 40.3435652,12.5148107 40.8790434,12.5148107 C41.7066006,12.5148107 42.120373,12.790659 42.120373,13.3423638 C42.120373,13.7480291 41.9662225,14.6891585 41.6579169,16.1657802 C41.2684782,17.9507076 41.0737618,19.1595721 41.0737618,19.79241 C41.0737618,20.2792083 41.1386672,20.6524148 41.2684801,20.9120406 C41.398293,21.1716664 41.617349,21.3014774 41.9256547,21.3014774 C42.2177337,21.3014774 42.582827,21.0986478 43.0209455,20.6929825 C43.3131893,20.4223864 43.6704088,20.0471052 44.0926093,19.567133 C44.2643524,18.8400781 44.6616632,18.1768668 45.2845466,17.5774885 C46.1445571,16.7499312 47.3777611,15.9548391 48.9841958,15.1921884 L44.9924691,15.2895476 C44.6354836,15.3057742 44.3636919,15.1800198 44.1770859,14.9122807 C43.9904798,14.6445416 43.8971782,14.3240708 43.8971782,13.9508587 C43.8971782,13.56142 43.9904798,13.2166097 44.1770859,12.9164174 C44.3636919,12.616225 44.6192572,12.4661311 44.9437895,12.4661311 C45.6902136,12.4661311 46.6881353,12.5229234 47.9375845,12.6365097 C48.1972103,12.6527363 48.6718316,12.685189 49.3614626,12.7338689 C50.0510936,12.7825487 50.6311863,12.8068883 51.1017581,12.8068883 C51.2640242,12.8068883 51.5723252,12.7419828 52.0266704,12.6121699 C52.1078034,12.5959433 52.2660105,12.5553774 52.5012964,12.4904709 C52.7365823,12.4255645 52.9353553,12.3931117 53.0976214,12.3931117 C53.3572472,12.3931117 53.5722466,12.5066963 53.742626,12.7338689 C53.9130055,12.9610415 53.9981939,13.3099084 53.9981939,13.7804801 C53.9981939,14.2997317 53.8764961,14.705391 53.633097,14.99747 C53.3896978,15.289549 53.0083781,15.5491709 52.4891265,15.7763435 C51.0125048,16.4091814 49.7874139,17.0866323 48.8138172,17.8087165 C47.8402204,18.5308008 47.3534294,19.2488176 47.3534294,19.9627886 C47.3534294,20.4171337 47.5643722,20.7903402 47.9862641,21.0824192 C48.408156,21.3744982 49.0328712,21.5205355 49.8604284,21.5205355 C50.7691187,21.5205355 51.6899652,21.2933664 52.6229954,20.8390212 C53.2849941,20.5166566 53.9000167,20.0758517 54.4680721,19.5165991 C54.4935104,18.8489019 54.5843383,18.0362152 54.7405577,17.0785226 C54.9271638,15.9345465 55.1665027,14.8676627 55.4585817,13.8778393 C55.6046212,13.3585877 55.7993377,13.0016076 56.0427368,12.8068883 C56.286136,12.6121689 56.6755689,12.5148107 57.2110471,12.5148107 C58.0386043,12.5148107 58.4523767,12.790659 58.4523767,13.3423638 C58.4523767,13.7480291 58.2982262,14.6891585 57.9899206,16.1657802 C57.6004819,17.9507076 57.4057655,19.1595721 57.4057655,19.79241 C57.4057655,20.2792083 57.4706709,20.6524148 57.6004838,20.9120406 C57.7302967,21.1716664 57.9493527,21.3014774 58.2576584,21.3014774 C58.5497374,21.3014774 58.9148307,21.0986478 59.3529492,20.6929825 C59.5754718,20.486943 59.8356656,20.2202099 60.1335329,19.8927807 C60.0999397,19.6268674 60.0831431,19.3500126 60.0831431,19.0622161 C60.0831431,17.7478605 60.342765,16.5957883 60.8620166,15.6059649 C61.3812682,14.6161416 62.0546625,13.8535022 62.8822198,13.318024 C63.709777,12.7825458 64.5778877,12.5148107 65.486578,12.5148107 C66.3790417,12.5148107 67.072719,12.7784892 67.5676307,13.3058541 C68.0625423,13.833219 68.3099945,14.5106699 68.3099945,15.3382271 C68.3099945,16.0197449 68.1599005,16.595781 67.8597082,17.0663527 C67.5595159,17.5369245 67.1660264,17.7722068 66.6792281,17.7722068 C66.3709224,17.7722068 66.1234703,17.6991882 65.9368643,17.5531487 C65.7502582,17.4071091 65.6569566,17.2042795 65.6569566,16.9446537 C65.6569566,16.8310675 65.673183,16.7012565 65.7056362,16.555217 C65.7380894,16.4091775 65.762429,16.3037061 65.7786556,16.2387996 C65.8597886,15.9954004 65.9003546,15.7682313 65.9003546,15.5572853 C65.9003546,15.3463394 65.8476189,15.1840757 65.7421459,15.0704894 C65.6366729,14.9569031 65.486579,14.9001108 65.2918596,14.9001108 C64.9186476,14.9001108 64.5697806,15.0664311 64.2452484,15.3990766 C63.9207161,15.7317222 63.6610942,16.1820039 63.4663749,16.7499354 C63.2716555,17.3178668 63.1742973,17.942582 63.1742973,18.6240997 C63.1742973,20.5063868 63.993729,21.4475162 65.6326168,21.4475162 C66.2979079,21.4475162 67.0159247,21.2244036 67.7866888,20.7781717 C68.4007441,20.422666 69.0070679,19.9255539 69.6056716,19.2868251 Z M24.1089234,4.94513389 C23.8655242,4.94513389 23.5937325,5.24937831 23.2935402,5.85787627 C22.9933478,6.46637423 22.7093864,7.31014542 22.4416473,8.38921514 C22.1739082,9.46828487 21.9507956,10.6649796 21.7723029,11.9793352 C22.729673,11.1517779 23.4476898,10.2228183 23.9263749,9.19242844 C24.4050599,8.16203855 24.6443989,7.22496575 24.6443989,6.3811819 C24.6443989,5.42381177 24.4659088,4.94513389 24.1089234,4.94513389 Z M41.3414995,10.9083841 C40.6599818,10.9083841 40.1488512,10.750177 39.8080923,10.4337581 C39.4673335,10.1173391 39.2969566,9.67517058 39.2969566,9.10723915 C39.2969566,8.53930772 39.5200692,8.06468642 39.966301,7.68336103 C40.4125329,7.30203564 40.968286,7.11137581 41.6335771,7.11137581 C42.2339618,7.11137581 42.7207528,7.25741313 43.0939649,7.54949215 C43.467177,7.84157117 43.6537802,8.25534358 43.6537802,8.79082179 C43.6537802,9.43988629 43.4428374,9.9550735 43.0209455,10.3363989 C42.5990536,10.7177243 42.0392439,10.9083841 41.3414995,10.9083841 Z M57.6735032,10.9083841 C56.9919855,10.9083841 56.4808549,10.750177 56.140096,10.4337581 C55.7993372,10.1173391 55.6289603,9.67517058 55.6289603,9.10723915 C55.6289603,8.53930772 55.8520729,8.06468642 56.2983047,7.68336103 C56.7445365,7.30203564 57.3002897,7.11137581 57.9655808,7.11137581 C58.5659655,7.11137581 59.0527565,7.25741313 59.4259686,7.54949215 C59.7991807,7.84157117 59.9857839,8.25534358 59.9857839,8.79082179 C59.9857839,9.43988629 59.7748411,9.9550735 59.3529492,10.3363989 C58.9310573,10.7177243 58.3712476,10.9083841 57.6735032,10.9083841 Z M75.7092927,3.38738689 C75.4172137,3.38738689 75.0926863,3.80521589 74.7357008,4.64088643 C74.3787154,5.47655696 74.033905,6.60428961 73.7012595,8.02411819 C73.3686139,9.44394677 73.0968222,10.9895084 72.8858763,12.6608495 C73.8919262,11.4763068 74.7235276,10.1863105 75.3807054,8.79082179 C76.0378832,7.39533313 76.3664672,6.12967635 76.3664672,4.99381348 C76.3664672,4.47456189 76.3096749,4.07701585 76.1960886,3.80116343 C76.0825024,3.52531102 75.9202387,3.38738689 75.7092927,3.38738689 Z M7.67956048,24.0518744 C5.52142103,24.0518744 3.79331274,23.6421586 2.49518375,22.8227147 C1.19705476,22.0032708 0.548,20.7497838 0.548,19.0622161 C0.548,18.1697524 0.702150505,17.4882449 1.01045614,17.0176731 C1.31876178,16.5471014 1.77310011,16.311819 2.37348476,16.311819 C2.8116033,16.311819 3.16858342,16.4254036 3.44443583,16.6525762 C3.72028824,16.8797488 3.85821237,17.1718234 3.85821237,17.5288089 C3.85821237,17.8533411 3.83387282,18.1373026 3.78519298,18.3807018 C3.78519298,18.4456082 3.77302321,18.5591928 3.74868329,18.7214589 C3.72434337,18.883725 3.71217359,19.0541019 3.71217359,19.2325946 C3.71217359,19.9627922 4.08132349,20.5063756 4.81963435,20.863361 C5.55794521,21.2203465 6.59237623,21.3988366 7.92295845,21.3988366 C9.3022205,21.3988366 10.381274,21.1513844 11.1601514,20.6564728 C11.9390288,20.1615611 12.3284617,19.4678838 12.3284617,18.5754201 C12.3284617,18.0237153 12.1499716,17.549094 11.7929861,17.151542 C11.4360007,16.75399 10.9897755,16.4213494 10.4542973,16.1536103 C9.91881911,15.8858712 9.16429296,15.5572873 8.19069621,15.1678486 C6.94124706,14.6810502 5.92304241,14.2185987 5.13605171,13.7804801 C4.34906101,13.3423616 3.6756667,12.7460426 3.11584857,11.9915051 C2.55603044,11.2369676 2.27612558,10.2998948 2.27612558,9.18025854 C2.27612558,8.01194245 2.58848318,6.97345484 3.21320776,6.06476454 C3.83793233,5.15607425 4.73849581,4.4502272 5.91492521,3.94720222 C7.0913546,3.44417723 8.47465256,3.19266851 10.0648606,3.19266851 C11.2494033,3.19266851 12.33657,3.36710198 13.3263934,3.71597415 C14.3162167,4.06484631 15.1072522,4.5962599 15.6995235,5.31023084 C16.2917949,6.02420178 16.5879261,6.90042571 16.5879261,7.9389289 C16.5879261,8.96120548 16.4337756,9.73195801 16.12547,10.2512096 C15.8171644,10.7704612 15.362826,11.0300831 14.7624414,11.0300831 C14.3405494,11.0300831 13.9876259,10.9002722 13.7036602,10.6406464 C13.4196945,10.3810206 13.2777138,10.0727195 13.2777138,9.71573407 C13.2777138,9.40742844 13.3020533,9.12346698 13.3507331,8.86384118 C13.399413,8.37704281 13.4237525,8.0687418 13.4237525,7.9389289 C13.4237525,7.25741118 13.091112,6.73816737 12.4258209,6.3811819 C11.7605298,6.02419643 10.9329849,5.84570637 9.94316159,5.84570637 C8.54767292,5.84570637 7.48078916,6.10127168 6.7424783,6.61240997 C6.00416744,7.12354826 5.63501754,7.84156509 5.63501754,8.76648199 C5.63501754,9.38309326 5.82567738,9.91045026 6.20700277,10.3485688 C6.58832816,10.7866873 7.06294945,11.1517806 7.63088089,11.4438596 C8.19881232,11.7359387 8.9939044,12.0848056 10.016181,12.4904709 C11.2494035,12.9934959 12.239212,13.4478342 12.9856362,13.8534995 C13.7320604,14.2591648 14.3689453,14.8108614 14.8963102,15.5086057 C15.4236752,16.2063501 15.6873536,17.0663476 15.6873536,18.0886242 C15.6873536,20.0033645 14.9612236,21.4759074 13.5089418,22.5062973 C12.05666,23.5366872 10.1135523,24.0518744 7.67956048,24.0518744 Z" transform="translate(0 -1)"/>
</svg>
